<svg id="Calque_1" data-name="Calque 1" xmlns="http://www.w3.org/2000/svg" viewBox="0 0 77.75 67.41"><defs><style>.cls-1{fill:#fff;}</style></defs><g id="Groupe_27" data-name="Groupe 27"><g id="Groupe_24" data-name="Groupe 24"><path id="Tracé_36" data-name="Tracé 36" class="cls-1" d="M115.67,123H95.75c-1.11,0-1.37.28-1.37,1.38v38.11a2,2,0,0,0,2,2h18.68a2,2,0,0,0,2-2v-38.1C117,123.28,116.77,123,115.67,123Zm-10,9.7a2.79,2.79,0,1,1,2.78-2.8h0a2.78,2.78,0,0,1-2.78,2.79Z" transform="translate(-94.38 -97.08)"/><path id="Tracé_37" data-name="Tracé 37" class="cls-1" d="M105.71,130.73c-1.29,0-1.94-1.67-2.15-2.22a.78.78,0,0,1,.43-1,.78.78,0,0,1,1,.42v0c.42,1.07.74,1.22.74,1.22.79-.35,2.33-5.76,2.33-15.26s-1.54-14.9-2.4-15.26c-.79.35-2.34,5.75-2.34,15.26,0,2.82.3,7,.59,9.47a.78.78,0,1,1-1.55.18c-.29-2.52-.6-6.76-.6-9.64,0-.69,0-16.82,3.94-16.82s3.93,16.13,3.93,16.82S109.61,130.73,105.71,130.73Z" transform="translate(-94.38 -97.08)"/></g><g id="Groupe_25" data-name="Groupe 25"><path id="Tracé_38" data-name="Tracé 38" class="cls-1" d="M136.9,123h-7.3s-7.68,9.75-7.68,10.85v28.64a2,2,0,0,0,2,2h18.68a2,2,0,0,0,2-2V133.85C144.59,132.75,136.9,123,136.9,123Zm-3.65,9.7a2.79,2.79,0,1,1,2.79-2.79,2.79,2.79,0,0,1-2.79,2.79h0Z" transform="translate(-94.38 -97.08)"/><path id="Tracé_39" data-name="Tracé 39" class="cls-1" d="M133.25,130.73c-1.3,0-1.94-1.67-2.15-2.22a.78.78,0,1,1,1.44-.62s0,0,0,0c.41,1.07.72,1.22.74,1.22.79-.35,2.33-5.75,2.33-15.26s-1.54-14.9-2.4-15.26c-.79.36-2.34,5.76-2.34,15.26,0,2.81.3,7,.59,9.47a.78.78,0,0,1-.67.88.79.79,0,0,1-.88-.68h0c-.29-2.54-.6-6.79-.6-9.65,0-.69,0-16.82,3.93-16.82s3.94,16.13,3.94,16.82S137.14,130.73,133.25,130.73Z" transform="translate(-94.38 -97.08)"/></g><g id="Groupe_26" data-name="Groupe 26"><path id="Tracé_40" data-name="Tracé 40" class="cls-1" d="M160.79,123a11.34,11.34,0,0,0-11.33,11.34V162.9a1.58,1.58,0,0,0,1.57,1.59h19.52a1.58,1.58,0,0,0,1.57-1.59h0V134.34A11.34,11.34,0,0,0,160.79,123Zm0,9.69a2.75,2.75,0,1,1,2.75-2.75,2.75,2.75,0,0,1-2.75,2.75h0Z" transform="translate(-94.38 -97.08)"/><path id="Tracé_41" data-name="Tracé 41" class="cls-1" d="M160.79,130.73c-1.3,0-1.94-1.67-2.15-2.22a.78.78,0,0,1,.45-1,.79.79,0,0,1,1,.45c.41,1.07.74,1.22.74,1.22.79-.35,2.33-5.76,2.33-15.26s-1.54-14.91-2.4-15.26c-.79.35-2.34,5.76-2.34,15.26,0,2.78.31,7,.59,9.47a.77.77,0,0,1-.69.86h0a.77.77,0,0,1-.86-.67h0c-.29-2.56-.61-6.81-.61-9.65,0-.69,0-16.82,3.94-16.82s3.94,16.13,3.94,16.82S164.68,130.73,160.79,130.73Z" transform="translate(-94.38 -97.08)"/></g></g></svg>