<svg id="Calque_1" data-name="Calque 1" xmlns="http://www.w3.org/2000/svg" viewBox="0 0 79.15 78.03"><defs><style>.cls-1{fill:#fff;}</style></defs><g id="Groupe_40" data-name="Groupe 40"><g id="Groupe_32" data-name="Groupe 32"><g id="Groupe_31" data-name="Groupe 31"><g id="Groupe_30" data-name="Groupe 30"><g id="Groupe_28" data-name="Groupe 28"><path id="Tracé_42" data-name="Tracé 42" class="cls-1" d="M118.84,107.5c.34,0,1.64-.19,1.81-.51L128,91.41a1,1,0,0,0-1.69-.91L118,106.08a1,1,0,0,0,.4,1.3.89.89,0,0,0,.45.12Z" transform="translate(-86.85 -89.99)"/></g><g id="Groupe_29" data-name="Groupe 29"><path id="Tracé_43" data-name="Tracé 43" class="cls-1" d="M143.83,107.5a1,1,0,0,0,1-1,.89.89,0,0,0-.12-.45L136.35,90.5a1,1,0,0,0-1.7.91h0L142,107C142.19,107.31,143.49,107.5,143.83,107.5Z" transform="translate(-86.85 -89.99)"/></g></g></g><path id="Tracé_44" data-name="Tracé 44" class="cls-1" d="M157.55,105.58H105.12c-.53,0-1,.76-1,1.7s.43,1.71,1,1.71h1.49l6.72,27.68a2.12,2.12,0,0,0,2.12,2h31.77a2.12,2.12,0,0,0,2.12-2L156.06,109h1.49c.53,0,1-.77,1-1.71S158.08,105.58,157.55,105.58Zm-43.87,4h3l1.09,11.39H115Zm2.77,23.79-1.09-9.4h2.7l.91,9.4Zm5.31-23.79h3l.49,11.39h-2.76Zm1.51,23.79-.59-9.4h2.7l.41,9.4Zm9.34,0h-2.54l-.09-9.4h2.7Zm.12-12.4H130l-.11-11.39h3Zm6.69,12.4h-2.51l.4-9.4H140Zm.78-12.4h-2.76l.49-11.39h3Zm6,12.4h-2.51l.9-9.4h2.7Zm1.44-12.4h-2.76l1.1-11.39h3Z" transform="translate(-86.85 -89.99)"/></g><g id="Groupe_35" data-name="Groupe 35"><g id="Groupe_34" data-name="Groupe 34"><g id="Groupe_33" data-name="Groupe 33"><path id="Tracé_45" data-name="Tracé 45" class="cls-1" d="M149.12,148.76a9.63,9.63,0,1,0,9.63,9.63h0A9.63,9.63,0,0,0,149.12,148.76Zm0,12a2.33,2.33,0,1,1,2.32-2.32h0a2.32,2.32,0,0,1-2.32,2.32Z" transform="translate(-86.85 -89.99)"/></g></g></g><g id="Groupe_38" data-name="Groupe 38"><g id="Groupe_37" data-name="Groupe 37"><g id="Groupe_36" data-name="Groupe 36"><path id="Tracé_46" data-name="Tracé 46" class="cls-1" d="M112.48,148.76a9.63,9.63,0,1,0,9.63,9.63h0A9.64,9.64,0,0,0,112.48,148.76Zm0,12a2.33,2.33,0,1,1,2.33-2.32h0a2.34,2.34,0,0,1-2.33,2.32Z" transform="translate(-86.85 -89.99)"/></g></g></g><g id="Groupe_39" data-name="Groupe 39"><path id="Tracé_47" data-name="Tracé 47" class="cls-1" d="M164.44,147.93H97.38a1.56,1.56,0,0,1-1.57-1.56h0V101.63H88.42a1.56,1.56,0,1,1,0-3.12h9a1.56,1.56,0,0,1,1.56,1.56h0v44.74h65.5a1.57,1.57,0,0,1,0,3.13Z" transform="translate(-86.85 -89.99)"/></g></g></svg>