<svg id="Calque_1" data-name="Calque 1" xmlns="http://www.w3.org/2000/svg" viewBox="0 0 92.98 60.19"><defs><style>.cls-1{fill:#fff;}</style></defs><g id="Groupe_57" data-name="Groupe 57"><g id="Groupe_56" data-name="Groupe 56"><path id="Tracé_70" data-name="Tracé 70" class="cls-1" d="M171.18,97H93.71A7.78,7.78,0,0,0,86,104.8v4.84h93V104.8A7.77,7.77,0,0,0,171.18,97Z" transform="translate(-85.96 -97.04)"/><rect id="Rectangle_40" data-name="Rectangle 40" class="cls-1" x="15.84" y="42.36" width="5.92" height="2.26"/><path id="Tracé_71" data-name="Tracé 71" class="cls-1" d="M86,149.48a7.75,7.75,0,0,0,7.74,7.75h77.49a7.76,7.76,0,0,0,7.75-7.75V119.09H86Zm47.63-23h33.28a1.8,1.8,0,1,1,0,3.59H133.59a1.8,1.8,0,1,1,0-3.59Zm0,7.6H146.9a1.8,1.8,0,0,1,0,3.59H133.59a1.8,1.8,0,1,1,0-3.59Zm0,7.6h33.28a1.8,1.8,0,1,1,0,3.59H133.59a1.8,1.8,0,1,1,0-3.59ZM98.2,137.61V123.55a1.8,1.8,0,0,1,1.8-1.8h9.51a1.8,1.8,0,0,1,1.8,1.8v4.06h3.58a1.8,1.8,0,0,1,1.79,1.8v8.2a1.79,1.79,0,0,1-1.79,1.79h-3.58v4.07a1.8,1.8,0,0,1-1.8,1.79H100a1.8,1.8,0,0,1-1.8-1.79Z" transform="translate(-85.96 -97.04)"/><path id="Tracé_72" data-name="Tracé 72" class="cls-1" d="M113.09,131.2H101.8v4.61h11.29Z" transform="translate(-85.96 -97.04)"/><rect id="Rectangle_41" data-name="Rectangle 41" class="cls-1" x="15.84" y="28.3" width="5.92" height="2.27"/></g><rect id="Rectangle_42" data-name="Rectangle 42" class="cls-1" y="10.01" width="2.35" height="12.04"/><rect id="Rectangle_43" data-name="Rectangle 43" class="cls-1" x="90.62" y="10.01" width="2.35" height="12.04"/></g></svg>