<svg id="Calque_1" data-name="Calque 1" xmlns="http://www.w3.org/2000/svg" viewBox="0 0 75.25 76.33"><defs><style>.cls-1{fill:#fff;}</style></defs><g id="Groupe_45" data-name="Groupe 45"><path id="Tracé_48" data-name="Tracé 48" class="cls-1" d="M147.29,150.52c-20.77,0-37.6,5.92-37.6,13.21h75.2C184.89,156.44,168.05,150.52,147.29,150.52Z" transform="translate(-109.66 -87.4)"/><g id="Groupe_41" data-name="Groupe 41"><path id="Tracé_49" data-name="Tracé 49" d="M175.7,122.11A28.41,28.41,0,1,1,147.29,93.7h0A28.41,28.41,0,0,1,175.7,122.11Z" transform="translate(-109.66 -87.4)"/><path id="Tracé_50" data-name="Tracé 50" class="cls-1" d="M147.29,151.88a29.77,29.77,0,1,1,29.77-29.77A29.77,29.77,0,0,1,147.29,151.88Zm0-56.81a27,27,0,1,0,27.05,27A27,27,0,0,0,147.29,95.07Z" transform="translate(-109.66 -87.4)"/></g><path id="Tracé_51" data-name="Tracé 51" class="cls-1" d="M147.29,93.7c-15.4,0-27.88,11.81-27.88,26.36,0,.09,0,.18,0,.27A30.65,30.65,0,0,0,133,123.47a29.65,29.65,0,0,0,25.67-14.28c3.81,8.2,9.65,13.65,16.26,14.22a25.06,25.06,0,0,0,.26-3.35C175.17,105.51,162.68,93.7,147.29,93.7Z" transform="translate(-109.66 -87.4)"/><g id="Groupe_42" data-name="Groupe 42"><path id="Tracé_52" data-name="Tracé 52" class="cls-1" d="M140.32,125.78c0,2.69-1.29,4.86-2.89,4.86s-2.89-2.17-2.89-4.86,1.3-4.86,2.89-4.86S140.32,123.11,140.32,125.78Z" transform="translate(-109.66 -87.4)"/><path id="Tracé_53" data-name="Tracé 53" class="cls-1" d="M160,125.78c0,2.69-1.3,4.86-2.89,4.86s-2.89-2.17-2.89-4.86,1.29-4.86,2.89-4.86S160,123.11,160,125.78Z" transform="translate(-109.66 -87.4)"/></g><path id="Tracé_54" data-name="Tracé 54" class="cls-1" d="M139,140.24c-9.41,0-17.38-.52-22.1-5.21-2.92-2.9-4.34-7.12-4.34-12.92a34.71,34.71,0,0,1,69.42,0h0a1.36,1.36,0,0,1-2.72,0,32,32,0,0,0-64,0v0c0,5,1.16,8.63,3.53,11,4.58,4.54,13.64,4.47,24.15,4.4,1.42,0,2.85,0,4.31,0a1.37,1.37,0,0,1,.1,2.73h-.1l-4.29,0Z" transform="translate(-109.66 -87.4)"/><g id="Groupe_44" data-name="Groupe 44"><g id="Groupe_43" data-name="Groupe 43"><path id="Tracé_55" data-name="Tracé 55" class="cls-1" d="M177.81,108.23v30.49c3.92,0,7.1-6.83,7.1-15.24S181.74,108.23,177.81,108.23Z" transform="translate(-109.66 -87.4)"/><path id="Tracé_56" data-name="Tracé 56" class="cls-1" d="M116.76,137.35V106.87c-3.91,0-7.1,6.83-7.1,15.24S112.85,137.35,116.76,137.35Z" transform="translate(-109.66 -87.4)"/></g><path id="Tracé_57" data-name="Tracé 57" class="cls-1" d="M153.11,138.88c0,1.52-2.6,2.75-5.82,2.75s-5.83-1.23-5.83-2.75,2.61-2.76,5.83-2.76S153.11,137.36,153.11,138.88Z" transform="translate(-109.66 -87.4)"/></g></g></svg>