<?xml version="1.0" standalone="no"?>
<!DOCTYPE svg PUBLIC "-//W3C//DTD SVG 20010904//EN"
 "http://www.w3.org/TR/2001/REC-SVG-20010904/DTD/svg10.dtd">
<svg version="1.0" xmlns="http://www.w3.org/2000/svg"
 width="512.000000pt" height="512.000000pt" viewBox="0 0 512.000000 512.000000"
 preserveAspectRatio="xMidYMid meet">

<g transform="translate(0.000000,512.000000) scale(0.100000,-0.100000)"
fill="#f6d70e" stroke="none">
<path d="M1458 4537 c-603 -320 -1093 -585 -1090 -589 4 -3 141 -81 304 -172
l297 -166 1083 591 c596 325 1086 594 1090 597 6 6 -573 324 -584 321 -2 0
-496 -262 -1100 -582z"/>
<path d="M2270 4109 c-575 -314 -1060 -578 -1078 -588 l-32 -17 143 -80 144
-81 1089 588 c599 323 1090 592 1092 597 1 4 -66 39 -150 77 -84 38 -155 70
-158 71 -3 1 -476 -254 -1050 -567z"/>
<path d="M2760 3842 c-597 -323 -1093 -592 -1103 -598 -14 -8 65 -57 452 -277
258 -147 474 -267 480 -267 10 0 2149 1224 2163 1238 7 7 -890 493 -903 491
-2 0 -492 -264 -1089 -587z"/>
<path d="M262 2528 l3 -1262 1100 -628 c605 -345 1103 -628 1108 -628 4 0 6
570 5 1266 l-3 1266 -465 263 -465 262 -5 -311 c-3 -171 -9 -319 -14 -329 -10
-20 -57 -47 -83 -47 -23 0 -519 272 -547 300 -20 20 -21 32 -26 396 l-5 376
-299 169 c-165 93 -301 169 -303 169 -2 0 -2 -568 -1 -1262z"/>
<path d="M3763 3156 l-1082 -621 -1 -1252 c0 -689 3 -1253 8 -1252 4 0 493
278 1087 618 l1080 617 3 1257 c1 691 -1 1257 -5 1256 -5 -1 -495 -281 -1090
-623z"/>
<path d="M1060 3067 l0 -275 145 -80 145 -80 0 273 0 273 -102 57 c-57 32
-122 69 -145 82 l-43 25 0 -275z"/>
</g>
</svg>
