<svg id="Calque_1" data-name="Calque 1" xmlns="http://www.w3.org/2000/svg" viewBox="0 0 64.72 73.27"><defs><style>.cls-1{fill:#f6d70e;}</style></defs><g id="Groupe_46" data-name="Groupe 46"><path id="Tracé_59" data-name="Tracé 59" d="M154.33,161.24c-.76-.3-1.54-.54-2.26-.91-.88-.43-1.71-1-2.75-1.58L160.51,150a6.73,6.73,0,0,1-.18,8.92c-.75.67-1.6,1.21-2.4,1.81Z" transform="translate(-97.4 -87.97)"/><path id="Tracé_60" data-name="Tracé 60" d="M121,88.27a27,27,0,0,1,30.73,22.78c.07.49.13,1,.18,1.49a27.16,27.16,0,0,1-22.84,29.62A26.3,26.3,0,0,1,107,136a26.57,26.57,0,0,1-9.45-18A27,27,0,0,1,121,88.27Zm-18.51,30a22.52,22.52,0,0,0,24.39,19.4,22.13,22.13,0,0,0,17-10.54A21,21,0,0,0,147,111.63a22.54,22.54,0,0,0-44.57,6.62Z" transform="translate(-97.4 -87.97)"/><path id="Tracé_61" data-name="Tracé 61" d="M137.15,142.3,148,133.81c2.34,3,4.6,5.82,6.83,8.67,1.3,1.65,2.53,3.35,3.87,5,.46.56.43.81-.11,1.23-2.63,2.05-5.22,4.13-7.82,6.19-.74.59-1.5,1.17-2.36,1.84Z" transform="translate(-97.4 -87.97)"/><path id="Tracé_62" data-name="Tracé 62" class="cls-1" d="M102.47,118.25a22.36,22.36,0,0,1,18.92-25.33l.52-.07A22.46,22.46,0,0,1,147,111.63a21,21,0,0,1-3.21,15.49,22.17,22.17,0,0,1-17,10.53A22.51,22.51,0,0,1,102.47,118.25Z" transform="translate(-97.4 -87.97)"/></g></svg>