<svg id="Calque_1" data-name="Calque 1" xmlns="http://www.w3.org/2000/svg" viewBox="0 0 95.25 73.03"><defs><style>.cls-1{fill:#fff;}.cls-2{fill:none;stroke:#fff;stroke-miterlimit:10;}</style></defs><g id="Groupe_23" data-name="Groupe 23"><g id="Groupe_5" data-name="Groupe 5"><path id="Tracé_3" data-name="Tracé 3" class="cls-1" d="M92.34,114V154.5h33.54V121.31h13.94V154.5h33.54V114ZM122,144.35H95.77v-23H122Zm47.92,0H143.68v-23h26.26Z" transform="translate(-85.14 -86.37)"/></g><path id="Tracé_4" data-name="Tracé 4" d="M86.24,114.11a5.16,5.16,0,0,0,10.32,0Z" transform="translate(-85.14 -86.37)"/><path id="Tracé_5" data-name="Tracé 5" class="cls-1" d="M91.4,119.74a5.64,5.64,0,0,1-5.63-5.63.48.48,0,0,1,.47-.48H96.56a.48.48,0,0,1,.47.48A5.65,5.65,0,0,1,91.4,119.74Zm-4.66-5.15a4.68,4.68,0,0,0,9.32,0Z" transform="translate(-85.14 -86.37)"/><path id="Tracé_6" data-name="Tracé 6" d="M96.56,114.11a5.16,5.16,0,0,0,10.31,0Z" transform="translate(-85.14 -86.37)"/><path id="Tracé_7" data-name="Tracé 7" class="cls-1" d="M101.71,119.74a5.65,5.65,0,0,1-5.63-5.63.49.49,0,0,1,.48-.48h10.31a.48.48,0,0,1,.47.48A5.64,5.64,0,0,1,101.71,119.74Zm-4.65-5.15a4.68,4.68,0,0,0,9.31,0Z" transform="translate(-85.14 -86.37)"/><path id="Tracé_8" data-name="Tracé 8" d="M117.18,114.11a5.16,5.16,0,0,0,10.31,0Z" transform="translate(-85.14 -86.37)"/><path id="Tracé_9" data-name="Tracé 9" class="cls-1" d="M122.33,119.74a5.64,5.64,0,0,1-5.62-5.63.48.48,0,0,1,.47-.48h10.31a.48.48,0,0,1,.47.48A5.64,5.64,0,0,1,122.33,119.74Zm-4.65-5.15a4.68,4.68,0,0,0,9.32,0Z" transform="translate(-85.14 -86.37)"/><path id="Tracé_10" data-name="Tracé 10" d="M127.49,114.11a5.16,5.16,0,0,0,10.32,0Z" transform="translate(-85.14 -86.37)"/><path id="Tracé_11" data-name="Tracé 11" class="cls-1" d="M132.65,119.74a5.64,5.64,0,0,1-5.63-5.63.48.48,0,0,1,.47-.48h10.32a.49.49,0,0,1,.48.48A5.64,5.64,0,0,1,132.65,119.74ZM128,114.59a4.68,4.68,0,0,0,9.32,0Z" transform="translate(-85.14 -86.37)"/><path id="Tracé_12" data-name="Tracé 12" d="M106.87,114.11a5.16,5.16,0,0,0,10.31,0Z" transform="translate(-85.14 -86.37)"/><path id="Tracé_13" data-name="Tracé 13" class="cls-1" d="M112,119.74a5.65,5.65,0,0,1-5.63-5.63.49.49,0,0,1,.48-.48h10.31a.48.48,0,0,1,.47.48A5.64,5.64,0,0,1,112,119.74Zm-4.66-5.15a4.68,4.68,0,0,0,9.32,0Z" transform="translate(-85.14 -86.37)"/><g id="Groupe_7" data-name="Groupe 7"><g id="Groupe_6" data-name="Groupe 6"><path id="Tracé_14" data-name="Tracé 14" class="cls-2" d="M109.31,91.85l-2.44,22.26H96.56l4.5-22.26Z" transform="translate(-85.14 -86.37)"/><path id="Tracé_15" data-name="Tracé 15" class="cls-2" d="M106.87,114.58H96.56a.47.47,0,0,1-.47-.47.31.31,0,0,1,0-.1l4.5-22.26a.46.46,0,0,1,.46-.37h8.25a.47.47,0,0,1,.47.47v.05l-2.44,22.26A.48.48,0,0,1,106.87,114.58Zm-9.73-1h9.31l2.33-21.31h-7.33Z" transform="translate(-85.14 -86.37)"/></g></g><g id="Groupe_9" data-name="Groupe 9"><g id="Groupe_8" data-name="Groupe 8"><path id="Tracé_16" data-name="Tracé 16" class="cls-2" d="M127.49,114.58H117.18a.47.47,0,0,1-.47-.47h0l1.21-22.26a.48.48,0,0,1,.48-.47h9.82a.49.49,0,0,1,.48.48v0L128,114.13A.47.47,0,0,1,127.49,114.58Zm-9.83-1H127l.68-21.31h-8.87Z" transform="translate(-85.14 -86.37)"/></g></g><g id="Groupe_11" data-name="Groupe 11"><g id="Groupe_10" data-name="Groupe 10"><path id="Tracé_17" data-name="Tracé 17" class="cls-2" d="M117.18,114.58H106.87a.48.48,0,0,1-.48-.47.13.13,0,0,1,0-.06l2.43-22.25a.48.48,0,0,1,.47-.42h9a.47.47,0,0,1,.47.47v0l-1.08,22.26A.47.47,0,0,1,117.18,114.58Zm-9.78-1h9.33l1-21.31h-8Z" transform="translate(-85.14 -86.37)"/></g></g><g id="Groupe_13" data-name="Groupe 13"><g id="Groupe_12" data-name="Groupe 12"><path id="Tracé_18" data-name="Tracé 18" class="cls-2" d="M96.56,114.58H86.1a.48.48,0,0,1-.46-.48.5.5,0,0,1,0-.12L92,91.72a.47.47,0,0,1,.45-.34h8.6a.47.47,0,0,1,.47.47.28.28,0,0,1,0,.09L97,114.2A.47.47,0,0,1,96.56,114.58Zm-9.83-1h9.44l4.31-21.31H92.82Z" transform="translate(-85.14 -86.37)"/></g></g><path id="Tracé_19" data-name="Tracé 19" d="M179.27,114.11a5.16,5.16,0,0,1-10.31,0Z" transform="translate(-85.14 -86.37)"/><path id="Tracé_20" data-name="Tracé 20" class="cls-1" d="M174.13,119.74a5.64,5.64,0,0,1-5.63-5.63.48.48,0,0,1,.47-.48h10.31a.48.48,0,0,1,.47.48A5.64,5.64,0,0,1,174.13,119.74Zm-4.66-5.15a4.68,4.68,0,0,0,9.32,0Z" transform="translate(-85.14 -86.37)"/><path id="Tracé_21" data-name="Tracé 21" d="M169,114.11a5.16,5.16,0,0,1-10.31,0Z" transform="translate(-85.14 -86.37)"/><path id="Tracé_22" data-name="Tracé 22" class="cls-1" d="M163.81,119.74a5.64,5.64,0,0,1-5.62-5.63.48.48,0,0,1,.47-.48H169a.48.48,0,0,1,.47.48A5.64,5.64,0,0,1,163.81,119.74Zm-4.65-5.15a4.68,4.68,0,0,0,9.31,0Z" transform="translate(-85.14 -86.37)"/><path id="Tracé_23" data-name="Tracé 23" d="M148.35,114.11a5.16,5.16,0,0,1-10.32,0Z" transform="translate(-85.14 -86.37)"/><path id="Tracé_24" data-name="Tracé 24" class="cls-1" d="M143.19,119.74a5.64,5.64,0,0,1-5.63-5.63.48.48,0,0,1,.47-.48h10.31a.49.49,0,0,1,.48.48A5.65,5.65,0,0,1,143.19,119.74Zm-4.66-5.15a4.68,4.68,0,0,0,9.32,0Z" transform="translate(-85.14 -86.37)"/><path id="Tracé_25" data-name="Tracé 25" d="M158.66,114.11a5.16,5.16,0,0,1-10.31,0Z" transform="translate(-85.14 -86.37)"/><path id="Tracé_26" data-name="Tracé 26" class="cls-1" d="M153.51,119.74a5.65,5.65,0,0,1-5.63-5.63.48.48,0,0,1,.47-.48h10.31a.48.48,0,0,1,.47.48A5.64,5.64,0,0,1,153.51,119.74Zm-4.66-5.15a4.68,4.68,0,0,0,9.32,0Z" transform="translate(-85.14 -86.37)"/><g id="Groupe_15" data-name="Groupe 15"><g id="Groupe_14" data-name="Groupe 14"><path id="Tracé_27" data-name="Tracé 27" class="cls-1" d="M156.22,91.85l2.44,22.26H169l-4.5-22.26Z" transform="translate(-85.14 -86.37)"/><path id="Tracé_28" data-name="Tracé 28" d="M169,114.58H158.66a.47.47,0,0,1-.47-.42L155.75,91.9a.47.47,0,0,1,.42-.52h8.3a.46.46,0,0,1,.46.37l4.5,22.26a.46.46,0,0,1-.36.56Zm-9.89-1h9.31l-4.31-21.31h-7.34Z" transform="translate(-85.14 -86.37)"/></g></g><g id="Groupe_17" data-name="Groupe 17"><g id="Groupe_16" data-name="Groupe 16"><path id="Tracé_29" data-name="Tracé 29" class="cls-2" d="M148.35,114.58H138a.47.47,0,0,1-.47-.45l-.73-22.26a.49.49,0,0,1,.45-.5h9.85a.47.47,0,0,1,.47.47l1.22,22.26a.48.48,0,0,1-.47.48Zm-9.87-1h9.39l-1.21-21.31H137.8Z" transform="translate(-85.14 -86.37)"/></g></g><g id="Groupe_19" data-name="Groupe 19"><g id="Groupe_18" data-name="Groupe 18"><path id="Tracé_30" data-name="Tracé 30" class="cls-2" d="M158.66,114.58H148.35a.47.47,0,0,1-.47-.45L146.8,91.87a.47.47,0,0,1,.45-.49h9a.48.48,0,0,1,.47.42l2.44,22.26a.48.48,0,0,1-.42.52h-.06Zm-9.86-1h9.34L155.8,92.32h-8Z" transform="translate(-85.14 -86.37)"/></g></g><g id="Groupe_21" data-name="Groupe 21"><g id="Groupe_20" data-name="Groupe 20"><path id="Tracé_31" data-name="Tracé 31" class="cls-2" d="M179.42,114.58H169a.48.48,0,0,1-.47-.38L164,91.94a.47.47,0,0,1,.37-.55h8.69a.47.47,0,0,1,.45.34L179.87,114a.47.47,0,0,1-.32.58l-.12,0Zm-10.07-1h9.44L172.7,92.32H165Z" transform="translate(-85.14 -86.37)"/></g></g><g id="Groupe_22" data-name="Groupe 22"><path id="Tracé_32" data-name="Tracé 32" class="cls-1" d="M128.13,91.85h9l.64,22.26H127.5Z" transform="translate(-85.14 -86.37)"/><path id="Tracé_33" data-name="Tracé 33" d="M137.81,114.58H127.49a.47.47,0,0,1-.47-.47v0l.64-22.25a.47.47,0,0,1,.47-.46h9a.46.46,0,0,1,.47.46l.64,22.16a.46.46,0,0,1-.35.56l-.11,0Zm-9.83-1h9.34l-.62-21.31h-8.11Z" transform="translate(-85.14 -86.37)"/></g><rect id="Rectangle_5" data-name="Rectangle 5" class="cls-2" x="26.95" y="0.5" width="0.94" height="4.92"/><rect id="Rectangle_6" data-name="Rectangle 6" class="cls-2" x="64.14" y="0.5" width="0.94" height="4.92"/><path id="Tracé_34" data-name="Tracé 34" class="cls-1" d="M176.56,159.4H89a.48.48,0,0,1-.48-.47V154.5A.48.48,0,0,1,89,154h87.6a.47.47,0,0,1,.47.47v4.43A.47.47,0,0,1,176.56,159.4Zm-87.12-1h86.65V155H89.44Z" transform="translate(-85.14 -86.37)"/><path id="Tracé_35" data-name="Tracé 35" class="cls-1" d="M136.83,139.2a1.41,1.41,0,1,1,1.41-1.41h0A1.41,1.41,0,0,1,136.83,139.2Zm0-1.87a.45.45,0,0,0-.46.46.46.46,0,0,0,.46.47.47.47,0,0,0,.47-.47A.46.46,0,0,0,136.83,137.33Z" transform="translate(-85.14 -86.37)"/></g></svg>