<svg id="Groupe_1" data-name="Groupe 1" xmlns="http://www.w3.org/2000/svg" width="61.828" height="61.828" viewBox="0 0 61.828 61.828">
  <ellipse id="Ellipse_1" data-name="Ellipse 1" cx="30.914" cy="30.914" rx="30.914" ry="30.914" transform="translate(0 0)" fill="#171715"/>
  <g id="Groupe_1-2" data-name="Groupe 1" transform="translate(11.151 10.83)">
    <path id="Tracé_1" data-name="Tracé 1" d="M-115.821,71.557c.384,2.554,3.062,4.531,6.3,4.508s5.909-2.011,6.248-4.587" transform="translate(129.114 -35.898)" fill="#f6d70e"/>
    <path id="Tracé_2" data-name="Tracé 2" d="M-92.542,67.422H-93l-1.2-9.238c-.811-5.72-3.94-9.872-8.681-11.555a5.421,5.421,0,0,0,.139-1.236,5.435,5.435,0,0,0-5.468-5.4h0a5.435,5.435,0,0,0-5.4,5.466v0a5.437,5.437,0,0,0,.189,1.368,13.167,13.167,0,0,0-8.3,11.525l-1.145,9.253h-.686a4.051,4.051,0,0,0-4.026,4.074h0a4.053,4.053,0,0,0,4.074,4.026l31.018-.185a4.05,4.05,0,0,0,4.026-4.074h0A4.05,4.05,0,0,0-92.542,67.422Zm-14.4-23.154a1.32,1.32,0,0,1-.021.162v.018a2.851,2.851,0,0,1-.113.28.208.208,0,0,1-.018.029c-.011.015-.119.167-.183.238l-.012.012a2.044,2.044,0,0,1-.252.2.3.3,0,0,1-.033.018h-.007c-.064.028-.2.088-.266.113h-.046c-.1.019-.207.032-.312.044h-.046c-.066-.007-.233-.029-.3-.038h-.029l-.023-.006c-.062-.027-.206-.086-.267-.113h-.01l-.02-.011-.009-.007c-.058-.042-.171-.129-.226-.173h-.006c-.012-.011-.024-.023-.035-.035-.067-.079-.131-.159-.191-.244l-.015-.025a1.1,1.1,0,0,1-.155-.558l.037-.295a1.113,1.113,0,0,1,.282-.492l.035-.027a.977.977,0,0,1,.075-.113.839.839,0,0,1,.31-.287.827.827,0,0,1,.411-.134.831.831,0,0,1,.443.018l.041.014.019.007c.093.038.186.075.278.113a.47.47,0,0,1,.058.032,3.106,3.106,0,0,1,.247.189l.018.018a2.3,2.3,0,0,1,.189.241l.012.019a1.233,1.233,0,0,1,.172.624A1.284,1.284,0,0,1-106.945,44.268Z" transform="translate(127.586 -39.988)" fill="#f6d70e"/>
  </g>
</svg>
