<?xml version="1.0" standalone="no"?>
<!DOCTYPE svg PUBLIC "-//W3C//DTD SVG 20010904//EN"
 "http://www.w3.org/TR/2001/REC-SVG-20010904/DTD/svg10.dtd">
<svg version="1.0" xmlns="http://www.w3.org/2000/svg"
 width="512.000000pt" height="512.000000pt" viewBox="0 0 512.000000 512.000000"
 preserveAspectRatio="xMidYMid meet">

<g transform="translate(0.000000,512.000000) scale(0.100000,-0.100000)"
fill="#000000" stroke="none">
<path d="M681 4784 c-169 -45 -301 -180 -346 -351 -23 -86 -23 -3660 0 -3746
45 -173 178 -307 350 -352 36 -9 102 -15 167 -15 l108 0 0 828 c0 899 -1 881
56 994 36 71 123 159 193 197 120 64 58 61 1351 61 1293 0 1231 3 1351 -61 70
-38 157 -126 193 -197 57 -113 56 -95 56 -994 l0 -828 108 0 c65 0 131 6 167
15 172 45 305 179 350 352 23 86 23 2710 0 2796 -20 79 -59 151 -109 206 -24
25 -212 251 -418 501 -206 250 -394 472 -418 494 -51 46 -146 92 -219 106 -30
5 -100 10 -157 10 l-104 0 0 -428 c0 -347 -3 -439 -15 -485 -45 -173 -178
-307 -350 -352 -87 -22 -1422 -23 -1508 0 -173 45 -307 178 -352 350 -12 49
-15 135 -15 487 l0 428 -192 -1 c-135 0 -209 -5 -247 -15z"/>
<path d="M1442 4371 c3 -416 4 -430 24 -457 11 -15 33 -37 48 -48 27 -21 36
-21 726 -21 690 0 699 0 726 21 15 11 37 33 48 48 20 27 21 41 24 457 l3 429
-801 0 -801 0 3 -429z"/>
<path d="M1375 2066 c-65 -29 -95 -84 -95 -177 l0 -59 1281 0 1281 0 -4 74
c-4 80 -18 110 -72 150 -27 21 -33 21 -1194 23 -957 2 -1172 0 -1197 -11z"/>
<path d="M1280 1350 l0 -160 1280 0 1280 0 0 160 0 160 -1280 0 -1280 0 0
-160z"/>
<path d="M1280 595 l0 -275 1280 0 1280 0 0 275 0 275 -1280 0 -1280 0 0 -275z"/>
</g>
</svg>
