<?xml version="1.0" standalone="no"?>
<!DOCTYPE svg PUBLIC "-//W3C//DTD SVG 20010904//EN"
 "http://www.w3.org/TR/2001/REC-SVG-20010904/DTD/svg10.dtd">
<svg version="1.0" xmlns="http://www.w3.org/2000/svg"
 width="512.000000pt" height="512.000000pt" viewBox="0 0 512.000000 512.000000"
 preserveAspectRatio="xMidYMid meet">

<g transform="translate(0.000000,512.000000) scale(0.100000,-0.100000)"
fill="#000000" stroke="none">
<path d="M442 4890 c-106 -28 -187 -75 -267 -155 -81 -81 -127 -161 -155 -271
-20 -75 -20 -117 -20 -1894 0 -1262 3 -1834 11 -1876 38 -208 212 -397 419
-454 75 -20 84 -20 2130 -20 2265 0 2102 -5 2240 62 99 48 209 162 259 269 22
46 44 111 50 143 8 42 11 614 11 1876 0 1777 0 1819 -20 1894 -28 109 -74 190
-155 271 -81 82 -160 127 -271 155 -76 20 -117 20 -2118 19 -1977 0 -2043 -1
-2114 -19z m4203 -325 c50 -25 105 -80 130 -130 19 -37 20 -66 23 -422 l3
-383 -2241 0 -2240 0 0 363 c0 229 4 376 11 401 23 83 99 161 180 184 22 7
750 10 2064 9 1997 -2 2031 -2 2070 -22z m-3475 -1630 l0 -375 -425 0 -425 0
0 375 0 375 425 0 425 0 0 -375z m1230 0 l0 -375 -452 2 -453 3 -3 373 -2 372
455 0 455 0 0 -375z m1228 3 l-3 -373 -452 -3 -453 -2 0 375 0 375 455 0 455
0 -2 -372z m1172 -3 l0 -375 -425 0 -425 0 0 375 0 375 425 0 425 0 0 -375z
m-3630 -1065 l0 -370 -425 0 -425 0 0 370 0 370 425 0 425 0 0 -370z m1230 0
l0 -370 -455 0 -455 0 0 370 0 370 455 0 455 0 0 -370z m1230 0 l0 -370 -455
0 -455 0 0 370 0 370 455 0 455 0 0 -370z m1170 0 l0 -370 -425 0 -425 0 0
370 0 370 425 0 425 0 0 -370z m-3630 -1010 l0 -320 -322 0 c-318 0 -324 1
-374 24 -27 13 -66 42 -87 66 -60 70 -67 106 -67 342 l0 208 425 0 425 0 0
-320z m1230 0 l0 -320 -455 0 -455 0 0 313 c0 173 3 317 7 320 3 4 208 7 455
7 l448 0 0 -320z m1228 -2 l2 -318 -455 0 -455 0 0 320 0 320 453 -2 452 -3 3
-317z m1172 114 c0 -236 -7 -272 -67 -342 -21 -24 -60 -53 -87 -66 -50 -23
-56 -24 -373 -24 l-323 0 0 320 0 320 425 0 425 0 0 -208z"/>
</g>
</svg>
