<svg id="Calque_1" data-name="Calque 1" xmlns="http://www.w3.org/2000/svg" viewBox="0 0 72.32 72.32"><path id="Tracé_58" data-name="Tracé 58" d="M103,130.17a36.31,36.31,0,1,1,0,.08Zm33.3-2.76-.47.18c-2.36-2.38-4.69-4.79-7.08-7.13a2.8,2.8,0,1,0-4.22,3.68,1.49,1.49,0,0,0,.17.18q6.15,6.26,12.4,12.41a2.57,2.57,0,0,0,3.62.38,1.51,1.51,0,0,0,.23-.21q6.5-6.3,12.8-12.79a2.64,2.64,0,0,0,0-3.73.8.8,0,0,0-.13-.13,2.71,2.71,0,0,0-3.81,0s0,0-.05,0c-2.12,2-4.15,4.12-6.23,6.17-.41.41-.86.77-1.61,1.43V106.38c0-2.23-1-3.49-2.69-3.54s-2.91,1.27-2.92,3.54c0,6,0,11.94,0,17.91Zm2.72,20.83c5.41,0,10.82,0,16.23,0a6.31,6.31,0,0,0,6.59-6v-.4c.08-2.24.06-4.48,0-6.72a2.8,2.8,0,0,0-2.52-3.06l-.26,0a2.75,2.75,0,0,0-2.82,2.68c0,.12,0,.24,0,.36-.05,2,0,4,0,6,0,1.05-.31,1.59-1.5,1.59q-15.57,0-31.16,0c-1.12,0-1.58-.4-1.55-1.53.05-1.86,0-3.73,0-5.59,0-2.21-1-3.45-2.77-3.47s-2.82,1.23-2.84,3.39q0,3,0,6a6.33,6.33,0,0,0,6.9,6.82c5.24,0,10.46,0,15.69,0Z" transform="translate(-103.03 -94.2)"/></svg>